<svg height="1358" width="720" xmlns="http://www.w3.org/2000/svg">
<rect height="1358" fill="#555" width="720"></rect>
<text fill="#7f7" font-family="Courier New" font-size="12" xml:space="preserve">
<tspan x="10" y="26">7 megabytes installed</tspan>
<tspan x="10" y="42"></tspan>
<tspan x="10" y="58">node_modules</tspan>
<tspan x="10" y="74">└─┬ block_io@1.0.9-2 </tspan>
<tspan x="10" y="90">  ├── bigi@1.4.2 </tspan>
<tspan x="10" y="106">  ├─┬ bitcoinjs-lib@1.5.6 </tspan>
<tspan x="10" y="122">  │ ├─┬ bs58check@1.3.4 </tspan>
<tspan x="10" y="138">  │ │ └─┬ bs58@3.1.0 </tspan>
<tspan x="10" y="154">  │ │   └── base-x@1.1.0 </tspan>
<tspan x="10" y="170">  │ ├─┬ create-hash@1.1.2 </tspan>
<tspan x="10" y="186">  │ │ ├── cipher-base@1.0.3 </tspan>
<tspan x="10" y="202">  │ │ ├── inherits@2.0.3 </tspan>
<tspan x="10" y="218">  │ │ ├── ripemd160@1.0.1 </tspan>
<tspan x="10" y="234">  │ │ └── sha.js@2.4.8 </tspan>
<tspan x="10" y="250">  │ ├── create-hmac@1.1.4 </tspan>
<tspan x="10" y="266">  │ ├── ecurve@1.0.5 </tspan>
<tspan x="10" y="282">  │ ├── randombytes@2.0.3 </tspan>
<tspan x="10" y="298">  │ └── typeforce@1.10.6 </tspan>
<tspan x="10" y="314">  ├── pbkdf2-sha256@1.1.1 </tspan>
<tspan x="10" y="330">  └─┬ request@2.79.0 </tspan>
<tspan x="10" y="346">    ├── aws-sign2@0.6.0 </tspan>
<tspan x="10" y="362">    ├── aws4@1.6.0 </tspan>
<tspan x="10" y="378">    ├── caseless@0.11.0 </tspan>
<tspan x="10" y="394">    ├─┬ combined-stream@1.0.5 </tspan>
<tspan x="10" y="410">    │ └── delayed-stream@1.0.0 </tspan>
<tspan x="10" y="426">    ├── extend@3.0.0 </tspan>
<tspan x="10" y="442">    ├── forever-agent@0.6.1 </tspan>
<tspan x="10" y="458">    ├─┬ form-data@2.1.4 </tspan>
<tspan x="10" y="474">    │ └── asynckit@0.4.0 </tspan>
<tspan x="10" y="490">    ├─┬ har-validator@2.0.6 </tspan>
<tspan x="10" y="506">    │ ├─┬ chalk@1.1.3 </tspan>
<tspan x="10" y="522">    │ │ ├── ansi-styles@2.2.1 </tspan>
<tspan x="10" y="538">    │ │ ├── escape-string-regexp@1.0.5 </tspan>
<tspan x="10" y="554">    │ │ ├─┬ has-ansi@2.0.0 </tspan>
<tspan x="10" y="570">    │ │ │ └── ansi-regex@2.1.1 </tspan>
<tspan x="10" y="586">    │ │ ├── strip-ansi@3.0.1 </tspan>
<tspan x="10" y="602">    │ │ └── supports-color@2.0.0 </tspan>
<tspan x="10" y="618">    │ ├─┬ commander@2.9.0 </tspan>
<tspan x="10" y="634">    │ │ └── graceful-readlink@1.0.1 </tspan>
<tspan x="10" y="650">    │ ├─┬ is-my-json-valid@2.16.0 </tspan>
<tspan x="10" y="666">    │ │ ├── generate-function@2.0.0 </tspan>
<tspan x="10" y="682">    │ │ ├─┬ generate-object-property@1.2.0 </tspan>
<tspan x="10" y="698">    │ │ │ └── is-property@1.0.2 </tspan>
<tspan x="10" y="714">    │ │ ├── jsonpointer@4.0.1 </tspan>
<tspan x="10" y="730">    │ │ └── xtend@4.0.1 </tspan>
<tspan x="10" y="746">    │ └─┬ pinkie-promise@2.0.1 </tspan>
<tspan x="10" y="762">    │   └── pinkie@2.0.4 </tspan>
<tspan x="10" y="778">    ├─┬ hawk@3.1.3 </tspan>
<tspan x="10" y="794">    │ ├── boom@2.10.1 </tspan>
<tspan x="10" y="810">    │ ├── cryptiles@2.0.5 </tspan>
<tspan x="10" y="826">    │ ├── hoek@2.16.3 </tspan>
<tspan x="10" y="842">    │ └── sntp@1.0.9 </tspan>
<tspan x="10" y="858">    ├─┬ http-signature@1.1.1 </tspan>
<tspan x="10" y="874">    │ ├── assert-plus@0.2.0 </tspan>
<tspan x="10" y="890">    │ ├─┬ jsprim@1.4.0 </tspan>
<tspan x="10" y="906">    │ │ ├── assert-plus@1.0.0 </tspan>
<tspan x="10" y="922">    │ │ ├── extsprintf@1.0.2 </tspan>
<tspan x="10" y="938">    │ │ ├── json-schema@0.2.3 </tspan>
<tspan x="10" y="954">    │ │ └── verror@1.3.6 </tspan>
<tspan x="10" y="970">    │ └─┬ sshpk@1.13.0 </tspan>
<tspan x="10" y="986">    │   ├── asn1@0.2.3 </tspan>
<tspan x="10" y="1002">    │   ├── assert-plus@1.0.0 </tspan>
<tspan x="10" y="1018">    │   ├── bcrypt-pbkdf@1.0.1 </tspan>
<tspan x="10" y="1034">    │   ├─┬ dashdash@1.14.1 </tspan>
<tspan x="10" y="1050">    │   │ └── assert-plus@1.0.0 </tspan>
<tspan x="10" y="1066">    │   ├── ecc-jsbn@0.1.1 </tspan>
<tspan x="10" y="1082">    │   ├─┬ getpass@0.1.6 </tspan>
<tspan x="10" y="1098">    │   │ └── assert-plus@1.0.0 </tspan>
<tspan x="10" y="1114">    │   ├── jodid25519@1.0.2 </tspan>
<tspan x="10" y="1130">    │   ├── jsbn@0.1.1 </tspan>
<tspan x="10" y="1146">    │   └── tweetnacl@0.14.5 </tspan>
<tspan x="10" y="1162">    ├── is-typedarray@1.0.0 </tspan>
<tspan x="10" y="1178">    ├── isstream@0.1.2 </tspan>
<tspan x="10" y="1194">    ├── json-stringify-safe@5.0.1 </tspan>
<tspan x="10" y="1210">    ├─┬ mime-types@2.1.15 </tspan>
<tspan x="10" y="1226">    │ └── mime-db@1.27.0 </tspan>
<tspan x="10" y="1242">    ├── oauth-sign@0.8.2 </tspan>
<tspan x="10" y="1258">    ├── qs@6.3.2 </tspan>
<tspan x="10" y="1274">    ├── stringstream@0.0.5 </tspan>
<tspan x="10" y="1290">    ├─┬ tough-cookie@2.3.2 </tspan>
<tspan x="10" y="1306">    │ └── punycode@1.4.1 </tspan>
<tspan x="10" y="1322">    ├── tunnel-agent@0.4.3 </tspan>
<tspan x="10" y="1338">    └── uuid@3.0.1</tspan>
</text>
</svg>
